# xmcd
#
# Track frame offsets: 
#        150
#        15582
#        29843
#        42087
#        66369
#        80179
#        99202
#        120624
#        134635
#        153684
#        190981
#        203800
#
# Disc length: 2993 seconds
#
# Revision: 0
# Processed by: cddbd v1.5.1PL2 Copyright (c) Steve Scherf et al.
# Submitted via: ExactAudioCopy v0.95b4
#
DISCID=ac0baf0c
DTITLE=Alison Krauss and Union Station - 1995 Delaware Valley Bluegrass 
DTITLE=Festival
DYEAR=1995
DGENRE=Bluegrass
TTITLE0=I_Love_You_And_Lose_You_Again
TTITLE1=It_Won't_Work_This_Time
TTITLE2=Insturmental
TTITLE3=I_Don't_Know_Why
TTITLE4=Steel_Rails
TTITLE5=Baby,_Now_That_I_Found_You
TTITLE6=Ghost_In_The_House
TTITLE7=Instrumental
TTITLE8=Another_Night
TTITLE9=Foolish_Heart
TTITLE10=Instrumental
TTITLE11=I'm_Blue_&_Lonesome_Too
EXTD=
EXTT0=
EXTT1=
EXTT2=
EXTT3=
EXTT4=
EXTT5=
EXTT6=
EXTT7=
EXTT8=
EXTT9=
EXTT10=
EXTT11=
PLAYORDER=
